<?xml version="1.0" encoding="utf-8"?>
<!-- Generator: Adobe Illustrator 24.3.0, SVG Export Plug-In . SVG Version: 6.00 Build 0)  -->
<svg version="1.1" id="Layer_1" xmlns="http://www.w3.org/2000/svg" xmlns:xlink="http://www.w3.org/1999/xlink" x="0px" y="0px"
	 viewBox="0 0 122.9 92.6" style="enable-background:new 0 0 122.9 92.6;" xml:space="preserve">
<style type="text/css">
	.st0{fill-rule:evenodd;clip-rule:evenodd;}
</style>
<path class="st0" d="M14,0L14,0c3.5,0,6.4,2.9,6.4,6.4v10.4h13.6c1.2-5.3,6.5-8.7,11.8-7.5c3.7,0.8,6.6,3.7,7.5,7.5h6.6
	c1.2-5.3,6.5-8.7,11.8-7.5c3.7,0.8,6.6,3.7,7.5,7.5h23.5V6.4c0-3.5,2.9-6.4,6.4-6.4l0,0c3.5,0,6.4,2.9,6.4,6.4v75.5h5.1
	c1.4,0,2.5,1.1,2.5,2.5v5.7c0,1.4-1.1,2.5-2.5,2.5H2.5c-1.4,0-2.5-1.1-2.5-2.5v-5.7c0-1.4,1.1-2.5,2.5-2.5h5.1V6.4
	C7.6,2.9,10.5,0,14,0z M20.4,21.2v19.6H55c1.2-5.3,6.5-8.6,11.8-7.4c3.7,0.8,6.6,3.7,7.4,7.4h6.6c1.2-5.3,6.5-8.6,11.8-7.4
	c3.7,0.8,6.6,3.7,7.4,7.4h2.4V21.2H79c-1.2,5.3-6.5,8.6-11.8,7.4c-3.7-0.8-6.6-3.7-7.4-7.4h-6.6c-1.2,5.3-6.5,8.6-11.8,7.4
	c-3.7-0.8-6.6-3.7-7.4-7.4H20.4z M73.2,57.1c4.6,0,8.6,3.2,9.6,7.7h19.7V45.2h-2.4c-1.2,5.3-6.5,8.6-11.8,7.4
	c-3.7-0.8-6.6-3.7-7.4-7.4h-6.6c-1.2,5.3-6.5,8.6-11.8,7.4c-3.7-0.8-6.6-3.7-7.4-7.4H20.4v19.6h17.4c1.2-5.3,6.5-8.6,11.8-7.4
	c3.7,0.8,6.6,3.7,7.4,7.4h6.6C64.6,60.3,68.6,57.1,73.2,57.1L73.2,57.1z M82.9,69.1c-1.2,5.3-6.5,8.6-11.8,7.4
	c-3.7-0.8-6.6-3.7-7.4-7.4H57c-1.2,5.3-6.5,8.6-11.8,7.4c-3.7-0.8-6.6-3.7-7.4-7.4H20.4v12.8h82.1V69.1L82.9,69.1z"/>
</svg>
