<?xml version="1.0" encoding="utf-8"?>
<!-- Generator: Adobe Illustrator 24.3.0, SVG Export Plug-In . SVG Version: 6.00 Build 0)  -->
<svg version="1.1" id="Layer_1" xmlns="http://www.w3.org/2000/svg" xmlns:xlink="http://www.w3.org/1999/xlink" x="0px" y="0px"
	 viewBox="0 0 445 512.5" style="enable-background:new 0 0 445 512.5;" xml:space="preserve">
<style type="text/css">
	.st0{fill:url(#SVGID_1_);}
	.st1{fill:#594A42;}
	.st2{fill:none;stroke:#BE1E2D;stroke-width:5;stroke-miterlimit:10;}
</style>
<radialGradient id="SVGID_1_" cx="-513.53" cy="545.2478" r="227.5083" gradientTransform="matrix(1 0 0 -1 736.0701 777.6755)" gradientUnits="userSpaceOnUse">
	<stop  offset="0.21" style="stop-color:#FFF33B"/>
	<stop  offset="0.24" style="stop-color:#FEE72E"/>
	<stop  offset="0.3" style="stop-color:#FED51B"/>
	<stop  offset="0.36" style="stop-color:#FDCA10"/>
	<stop  offset="0.42" style="stop-color:#FDC70C"/>
	<stop  offset="0.58" style="stop-color:#F59B39"/>
	<stop  offset="0.65" style="stop-color:#F4963C"/>
	<stop  offset="0.77" style="stop-color:#F3903F"/>
	<stop  offset="0.86" style="stop-color:#ED683C"/>
	<stop  offset="0.99" style="stop-color:#E93E3A"/>
</radialGradient>
<path class="st0" d="M161.2,434.4c0,0-82.1-158.8-84.8-196.9C65.4,81.5,223.8,74.2,223.8,74.2c148.7,14.6,145,129.1,148.6,163.2
	c3.7,34.1-84.2,196.9-84.2,196.9s28.2,0,55,30.5c0,0-55.2-97.2,54.4-93c0,0,11.4-15.6,28.4-61.3c0,0-57.3-49.9,17-79.2
	c0,0,7.3-35.3-6.1-70.7c0,0-80.4,3.7-39-74.3c0,0-19.5-34.1-56-48.7c0,0-60.9,59.7-71.9-31.7c0,0-52.4-13.4-90.1,0
	c0,0-13.4,85.3-78,32.9c0,0-30.5,13.4-54.8,48.7c0,0,47.5,65.8-31.7,69.4c0,0-21.9,17-13.4,78c0,0,74.3,11,21.9,74.3
	c0,0-11,21.9,29.2,63.3c0,0,124.3-18.7,60.9,92.2C114.2,464.8,140.5,434.4,161.2,434.4z"/>
<path class="st1" d="M269.9,452.5h-94.5c-5.7,0-10.2-4.6-10.2-10.2l0,0c0-5.7,4.6-10.2,10.2-10.2h94.5c5.7,0,10.2,4.6,10.2,10.2l0,0
	C280.1,447.9,275.5,452.5,269.9,452.5z"/>
<path class="st1" d="M175.4,453.8h94.5c5.7,1,10.2,5.6,10.2,11.2l0,0c0,5.7-4.6,10.2-10.2,10.2h-94.5c-5.7,0-10.3-4.6-10.3-10.2
	c0,0,0,0,0,0l0,0C165.1,459.4,169.7,454.8,175.4,453.8z"/>
<path class="st1" d="M245.6,512.6h-47.9c-6.9,0-12.5-5.6-12.5-12.5v-4.5c0-6.9,5.6-12.5,12.5-12.5h47.9c6.9,0,12.5,5.6,12.5,12.5
	v4.5C258.1,507,252.5,512.6,245.6,512.6z"/>
<path class="st1" d="M269.9,497.6h-94.5c-5.7,0-10.2-4.6-10.2-10.2l0,0c0-5.7,4.6-10.2,10.2-10.2h94.5c5.7,0,10.2,4.6,10.2,10.2l0,0
	C280.1,493,275.5,497.6,269.9,497.6z"/>
<polyline class="st2" points="258.1,401.4 258.1,326.4 318.1,266.4 "/>
<polyline class="st2" points="185.1,401.4 185.1,327.4 133.1,266.4 "/>
<line class="st2" x1="288.1" y1="296.4" x2="185.1" y2="193.4"/>
<line class="st2" x1="158.7" y1="296.4" x2="186.9" y2="268.2"/>
<line class="st2" x1="221.6" y1="229.9" x2="287.6" y2="163.9"/>
<circle class="st2" cx="323.1" cy="260.4" r="7"/>
<ellipse transform="matrix(0.1602 -0.9871 0.9871 0.1602 -100.3352 408.8412)" class="st2" cx="190.1" cy="263.4" rx="7" ry="7"/>
<circle class="st2" cx="181.9" cy="188.9" r="7"/>
<circle class="st2" cx="289.6" cy="160.9" r="7"/>
<circle class="st2" cx="129.1" cy="259.4" r="7"/>
</svg>
